<mxfile host="app.diagrams.net" agent="Mozilla/5.0 (X11; Linux x86_64; rv:140.0) Gecko/20100101 Firefox/140.0" version="28.2.0">
  <diagram name="Page-1" id="PyZgpR-m7CtrsViYgB0N">
    <mxGraphModel dx="1713" dy="978" grid="1" gridSize="10" guides="1" tooltips="1" connect="1" arrows="1" fold="1" page="1" pageScale="1" pageWidth="850" pageHeight="1100" math="0" shadow="0">
      <root>
        <mxCell id="0" />
        <mxCell id="1" parent="0" />
        <mxCell id="VaN_sjdJw7HqfcQoB7aO-126" value="" style="rounded=0;whiteSpace=wrap;html=1;fontFamily=Helvetica;fontSize=11;fontColor=default;labelBackgroundColor=default;fillColor=none;strokeColor=light-dark(#000000,#F19C99);" vertex="1" parent="1">
          <mxGeometry x="30" y="110" width="460" height="420" as="geometry" />
        </mxCell>
        <mxCell id="VaN_sjdJw7HqfcQoB7aO-102" value="" style="rounded=0;whiteSpace=wrap;html=1;fontFamily=Helvetica;fontSize=11;fontColor=default;labelBackgroundColor=default;fillColor=none;strokeColor=light-dark(#000000,#F19C99);" vertex="1" parent="1">
          <mxGeometry x="510" y="110" width="140" height="140" as="geometry" />
        </mxCell>
        <mxCell id="VaN_sjdJw7HqfcQoB7aO-83" value="" style="rounded=0;whiteSpace=wrap;html=1;fontFamily=Helvetica;fontSize=11;fontColor=default;labelBackgroundColor=default;fillColor=none;strokeColor=light-dark(#000000,#F19C99);" vertex="1" parent="1">
          <mxGeometry x="670" y="345" width="140" height="220" as="geometry" />
        </mxCell>
        <mxCell id="VaN_sjdJw7HqfcQoB7aO-82" value="" style="rounded=0;whiteSpace=wrap;html=1;fontFamily=Helvetica;fontSize=11;fontColor=default;labelBackgroundColor=default;fillColor=none;strokeColor=light-dark(#000000,#F19C99);" vertex="1" parent="1">
          <mxGeometry x="670" y="110" width="140" height="220" as="geometry" />
        </mxCell>
        <mxCell id="VaN_sjdJw7HqfcQoB7aO-67" value="" style="rounded=0;whiteSpace=wrap;html=1;fontFamily=Helvetica;fontSize=11;fontColor=default;labelBackgroundColor=default;fillColor=none;strokeColor=light-dark(#000000,#F19C99);" vertex="1" parent="1">
          <mxGeometry x="30" y="30" width="140" height="60" as="geometry" />
        </mxCell>
        <mxCell id="VaN_sjdJw7HqfcQoB7aO-4" style="edgeStyle=orthogonalEdgeStyle;rounded=1;orthogonalLoop=1;jettySize=auto;html=1;exitX=1;exitY=0.5;exitDx=0;exitDy=0;curved=0;fillColor=#60a917;strokeColor=#2D7600;" edge="1" parent="1" source="VaN_sjdJw7HqfcQoB7aO-3" target="VaN_sjdJw7HqfcQoB7aO-6">
          <mxGeometry relative="1" as="geometry">
            <mxPoint x="200" y="60" as="targetPoint" />
          </mxGeometry>
        </mxCell>
        <mxCell id="VaN_sjdJw7HqfcQoB7aO-3" value="Server" style="rounded=0;whiteSpace=wrap;html=1;" vertex="1" parent="1">
          <mxGeometry x="40" y="40" width="120" height="40" as="geometry" />
        </mxCell>
        <mxCell id="VaN_sjdJw7HqfcQoB7aO-77" style="edgeStyle=orthogonalEdgeStyle;shape=connector;curved=0;rounded=1;orthogonalLoop=1;jettySize=auto;html=1;exitX=0.5;exitY=1;exitDx=0;exitDy=0;strokeColor=default;align=center;verticalAlign=middle;fontFamily=Helvetica;fontSize=11;fontColor=default;labelBackgroundColor=default;endArrow=classic;" edge="1" parent="1" source="VaN_sjdJw7HqfcQoB7aO-5" target="VaN_sjdJw7HqfcQoB7aO-11">
          <mxGeometry relative="1" as="geometry" />
        </mxCell>
        <mxCell id="VaN_sjdJw7HqfcQoB7aO-78" style="edgeStyle=orthogonalEdgeStyle;shape=connector;curved=0;rounded=1;orthogonalLoop=1;jettySize=auto;html=1;exitX=0.5;exitY=1;exitDx=0;exitDy=0;strokeColor=default;align=center;verticalAlign=middle;fontFamily=Helvetica;fontSize=11;fontColor=default;labelBackgroundColor=default;endArrow=classic;" edge="1" parent="1" source="VaN_sjdJw7HqfcQoB7aO-5" target="VaN_sjdJw7HqfcQoB7aO-18">
          <mxGeometry relative="1" as="geometry" />
        </mxCell>
        <mxCell id="VaN_sjdJw7HqfcQoB7aO-80" style="edgeStyle=orthogonalEdgeStyle;shape=connector;curved=0;rounded=1;orthogonalLoop=1;jettySize=auto;html=1;exitX=0.5;exitY=1;exitDx=0;exitDy=0;strokeColor=default;align=center;verticalAlign=middle;fontFamily=Helvetica;fontSize=11;fontColor=default;labelBackgroundColor=default;endArrow=classic;" edge="1" parent="1" source="VaN_sjdJw7HqfcQoB7aO-5" target="VaN_sjdJw7HqfcQoB7aO-12">
          <mxGeometry relative="1" as="geometry" />
        </mxCell>
        <mxCell id="VaN_sjdJw7HqfcQoB7aO-5" value="tcp_rx" style="rounded=1;whiteSpace=wrap;html=1;fillColor=#1ba1e2;fontColor=#ffffff;strokeColor=#006EAF;arcSize=15;" vertex="1" parent="1">
          <mxGeometry x="200" y="240" width="120" height="40" as="geometry" />
        </mxCell>
        <mxCell id="VaN_sjdJw7HqfcQoB7aO-74" style="edgeStyle=orthogonalEdgeStyle;shape=connector;curved=0;rounded=1;orthogonalLoop=1;jettySize=auto;html=1;exitX=0.5;exitY=1;exitDx=0;exitDy=0;entryX=0.5;entryY=0;entryDx=0;entryDy=0;strokeColor=default;align=center;verticalAlign=middle;fontFamily=Helvetica;fontSize=11;fontColor=default;labelBackgroundColor=default;endArrow=classic;" edge="1" parent="1" source="VaN_sjdJw7HqfcQoB7aO-6" target="VaN_sjdJw7HqfcQoB7aO-70">
          <mxGeometry relative="1" as="geometry" />
        </mxCell>
        <mxCell id="VaN_sjdJw7HqfcQoB7aO-92" style="edgeStyle=orthogonalEdgeStyle;shape=connector;curved=0;rounded=1;orthogonalLoop=1;jettySize=auto;html=1;exitX=1;exitY=0.5;exitDx=0;exitDy=0;entryX=0;entryY=0.5;entryDx=0;entryDy=0;strokeColor=#2D7600;align=center;verticalAlign=middle;fontFamily=Helvetica;fontSize=11;fontColor=default;labelBackgroundColor=default;endArrow=classic;fillColor=#60a917;" edge="1" parent="1" source="VaN_sjdJw7HqfcQoB7aO-6" target="VaN_sjdJw7HqfcQoB7aO-89">
          <mxGeometry relative="1" as="geometry" />
        </mxCell>
        <mxCell id="VaN_sjdJw7HqfcQoB7aO-6" value="Handle Connection" style="rounded=0;whiteSpace=wrap;html=1;" vertex="1" parent="1">
          <mxGeometry x="200" y="40" width="120" height="40" as="geometry" />
        </mxCell>
        <mxCell id="VaN_sjdJw7HqfcQoB7aO-39" style="edgeStyle=orthogonalEdgeStyle;shape=connector;curved=0;rounded=1;orthogonalLoop=1;jettySize=auto;html=1;exitX=0.5;exitY=1;exitDx=0;exitDy=0;entryX=0.5;entryY=0;entryDx=0;entryDy=0;strokeColor=default;align=center;verticalAlign=middle;fontFamily=Helvetica;fontSize=11;fontColor=default;labelBackgroundColor=default;endArrow=classic;" edge="1" parent="1" source="VaN_sjdJw7HqfcQoB7aO-11" target="VaN_sjdJw7HqfcQoB7aO-41">
          <mxGeometry relative="1" as="geometry">
            <mxPoint x="260" y="400" as="targetPoint" />
          </mxGeometry>
        </mxCell>
        <mxCell id="VaN_sjdJw7HqfcQoB7aO-95" style="edgeStyle=orthogonalEdgeStyle;shape=connector;curved=0;rounded=1;orthogonalLoop=1;jettySize=auto;html=1;exitX=0.5;exitY=1;exitDx=0;exitDy=0;strokeColor=default;align=center;verticalAlign=middle;fontFamily=Helvetica;fontSize=11;fontColor=default;labelBackgroundColor=default;endArrow=classic;" edge="1" parent="1" source="VaN_sjdJw7HqfcQoB7aO-11" target="VaN_sjdJw7HqfcQoB7aO-94">
          <mxGeometry relative="1" as="geometry" />
        </mxCell>
        <mxCell id="VaN_sjdJw7HqfcQoB7aO-11" value="Join Game" style="rounded=0;whiteSpace=wrap;html=1;" vertex="1" parent="1">
          <mxGeometry x="200" y="320" width="120" height="40" as="geometry" />
        </mxCell>
        <mxCell id="VaN_sjdJw7HqfcQoB7aO-55" style="edgeStyle=orthogonalEdgeStyle;shape=connector;curved=0;rounded=1;orthogonalLoop=1;jettySize=auto;html=1;exitX=0.5;exitY=1;exitDx=0;exitDy=0;entryX=0.5;entryY=0;entryDx=0;entryDy=0;strokeColor=default;align=center;verticalAlign=middle;fontFamily=Helvetica;fontSize=11;fontColor=default;labelBackgroundColor=default;endArrow=classic;" edge="1" parent="1" source="VaN_sjdJw7HqfcQoB7aO-12" target="VaN_sjdJw7HqfcQoB7aO-41">
          <mxGeometry relative="1" as="geometry" />
        </mxCell>
        <mxCell id="VaN_sjdJw7HqfcQoB7aO-96" style="edgeStyle=orthogonalEdgeStyle;shape=connector;curved=0;rounded=1;orthogonalLoop=1;jettySize=auto;html=1;exitX=0.5;exitY=1;exitDx=0;exitDy=0;strokeColor=default;align=center;verticalAlign=middle;fontFamily=Helvetica;fontSize=11;fontColor=default;labelBackgroundColor=default;endArrow=classic;" edge="1" parent="1" source="VaN_sjdJw7HqfcQoB7aO-12" target="VaN_sjdJw7HqfcQoB7aO-94">
          <mxGeometry relative="1" as="geometry" />
        </mxCell>
        <mxCell id="VaN_sjdJw7HqfcQoB7aO-133" style="edgeStyle=orthogonalEdgeStyle;shape=connector;curved=0;rounded=1;orthogonalLoop=1;jettySize=auto;html=1;exitX=1;exitY=0.5;exitDx=0;exitDy=0;entryX=0;entryY=0.5;entryDx=0;entryDy=0;strokeColor=#2D7600;align=center;verticalAlign=middle;fontFamily=Helvetica;fontSize=11;fontColor=default;labelBackgroundColor=default;endArrow=classic;fillColor=#60a917;" edge="1" parent="1" source="VaN_sjdJw7HqfcQoB7aO-12" target="VaN_sjdJw7HqfcQoB7aO-16">
          <mxGeometry relative="1" as="geometry">
            <Array as="points">
              <mxPoint x="660" y="340" />
              <mxPoint x="660" y="60" />
            </Array>
          </mxGeometry>
        </mxCell>
        <mxCell id="VaN_sjdJw7HqfcQoB7aO-12" value="New Game" style="rounded=0;whiteSpace=wrap;html=1;" vertex="1" parent="1">
          <mxGeometry x="360" y="320" width="120" height="40" as="geometry" />
        </mxCell>
        <mxCell id="VaN_sjdJw7HqfcQoB7aO-50" style="edgeStyle=orthogonalEdgeStyle;shape=connector;curved=0;rounded=1;orthogonalLoop=1;jettySize=auto;html=1;exitX=0.5;exitY=1;exitDx=0;exitDy=0;entryX=0.5;entryY=0;entryDx=0;entryDy=0;strokeColor=default;align=center;verticalAlign=middle;fontFamily=Helvetica;fontSize=11;fontColor=default;labelBackgroundColor=default;endArrow=classic;" edge="1" parent="1" source="VaN_sjdJw7HqfcQoB7aO-16" target="VaN_sjdJw7HqfcQoB7aO-48">
          <mxGeometry relative="1" as="geometry" />
        </mxCell>
        <mxCell id="VaN_sjdJw7HqfcQoB7aO-16" value="Game" style="rounded=0;whiteSpace=wrap;html=1;" vertex="1" parent="1">
          <mxGeometry x="680" y="40" width="120" height="40" as="geometry" />
        </mxCell>
        <mxCell id="VaN_sjdJw7HqfcQoB7aO-56" style="edgeStyle=orthogonalEdgeStyle;shape=connector;curved=0;rounded=1;orthogonalLoop=1;jettySize=auto;html=1;exitX=0.5;exitY=1;exitDx=0;exitDy=0;strokeColor=default;align=center;verticalAlign=middle;fontFamily=Helvetica;fontSize=11;fontColor=default;labelBackgroundColor=default;endArrow=classic;" edge="1" parent="1" source="VaN_sjdJw7HqfcQoB7aO-18" target="VaN_sjdJw7HqfcQoB7aO-41">
          <mxGeometry relative="1" as="geometry" />
        </mxCell>
        <mxCell id="VaN_sjdJw7HqfcQoB7aO-18" value="Action" style="rounded=0;whiteSpace=wrap;html=1;" vertex="1" parent="1">
          <mxGeometry x="40" y="320" width="120" height="40" as="geometry" />
        </mxCell>
        <mxCell id="VaN_sjdJw7HqfcQoB7aO-41" value="to_game_tx" style="rounded=1;whiteSpace=wrap;html=1;fillColor=#60a917;fontColor=#ffffff;strokeColor=#2D7600;" vertex="1" parent="1">
          <mxGeometry x="280" y="400" width="120" height="40" as="geometry" />
        </mxCell>
        <mxCell id="VaN_sjdJw7HqfcQoB7aO-59" style="edgeStyle=orthogonalEdgeStyle;shape=connector;curved=0;rounded=1;orthogonalLoop=1;jettySize=auto;html=1;exitX=0.5;exitY=1;exitDx=0;exitDy=0;entryX=0.5;entryY=0;entryDx=0;entryDy=0;strokeColor=default;align=center;verticalAlign=middle;fontFamily=Helvetica;fontSize=11;fontColor=default;labelBackgroundColor=default;endArrow=classic;" edge="1" parent="1" source="VaN_sjdJw7HqfcQoB7aO-43" target="VaN_sjdJw7HqfcQoB7aO-52">
          <mxGeometry relative="1" as="geometry" />
        </mxCell>
        <mxCell id="VaN_sjdJw7HqfcQoB7aO-43" value="to_game_rx" style="rounded=1;whiteSpace=wrap;html=1;fillColor=#1ba1e2;fontColor=#ffffff;strokeColor=#006EAF;" vertex="1" parent="1">
          <mxGeometry x="680" y="200" width="120" height="40" as="geometry" />
        </mxCell>
        <mxCell id="VaN_sjdJw7HqfcQoB7aO-51" style="edgeStyle=orthogonalEdgeStyle;shape=connector;curved=0;rounded=1;orthogonalLoop=1;jettySize=auto;html=1;exitX=0.5;exitY=1;exitDx=0;exitDy=0;strokeColor=default;align=center;verticalAlign=middle;fontFamily=Helvetica;fontSize=11;fontColor=default;labelBackgroundColor=default;endArrow=classic;" edge="1" parent="1" source="VaN_sjdJw7HqfcQoB7aO-48" target="VaN_sjdJw7HqfcQoB7aO-43">
          <mxGeometry relative="1" as="geometry" />
        </mxCell>
        <mxCell id="VaN_sjdJw7HqfcQoB7aO-48" value="Wait For Connections" style="rounded=0;whiteSpace=wrap;html=1;" vertex="1" parent="1">
          <mxGeometry x="680" y="120" width="120" height="40" as="geometry" />
        </mxCell>
        <mxCell id="VaN_sjdJw7HqfcQoB7aO-130" style="edgeStyle=orthogonalEdgeStyle;shape=connector;curved=0;rounded=1;orthogonalLoop=1;jettySize=auto;html=1;exitX=0.5;exitY=1;exitDx=0;exitDy=0;entryX=0.5;entryY=0;entryDx=0;entryDy=0;align=center;verticalAlign=middle;fontFamily=Helvetica;fontSize=11;fontColor=default;labelBackgroundColor=default;endArrow=classic;" edge="1" parent="1" source="VaN_sjdJw7HqfcQoB7aO-52" target="VaN_sjdJw7HqfcQoB7aO-60">
          <mxGeometry relative="1" as="geometry" />
        </mxCell>
        <mxCell id="VaN_sjdJw7HqfcQoB7aO-52" value="&amp;nbsp;to_player_tx" style="rounded=1;whiteSpace=wrap;html=1;fillColor=#60a917;fontColor=#ffffff;strokeColor=#2D7600;" vertex="1" parent="1">
          <mxGeometry x="680" y="280" width="120" height="40" as="geometry" />
        </mxCell>
        <mxCell id="VaN_sjdJw7HqfcQoB7aO-87" style="edgeStyle=orthogonalEdgeStyle;shape=connector;curved=0;rounded=1;orthogonalLoop=1;jettySize=auto;html=1;exitX=0.5;exitY=1;exitDx=0;exitDy=0;strokeColor=default;align=center;verticalAlign=middle;fontFamily=Helvetica;fontSize=11;fontColor=default;labelBackgroundColor=default;endArrow=classic;" edge="1" parent="1" source="VaN_sjdJw7HqfcQoB7aO-53" target="VaN_sjdJw7HqfcQoB7aO-86">
          <mxGeometry relative="1" as="geometry" />
        </mxCell>
        <mxCell id="VaN_sjdJw7HqfcQoB7aO-53" value="to_player_rx" style="rounded=1;whiteSpace=wrap;html=1;fillColor=#1ba1e2;fontColor=#ffffff;strokeColor=#006EAF;" vertex="1" parent="1">
          <mxGeometry x="520" y="120" width="120" height="40" as="geometry" />
        </mxCell>
        <mxCell id="VaN_sjdJw7HqfcQoB7aO-88" style="edgeStyle=orthogonalEdgeStyle;shape=connector;curved=0;rounded=1;orthogonalLoop=1;jettySize=auto;html=1;exitX=0.5;exitY=1;exitDx=0;exitDy=0;strokeColor=default;align=center;verticalAlign=middle;fontFamily=Helvetica;fontSize=11;fontColor=default;labelBackgroundColor=default;endArrow=classic;" edge="1" parent="1" source="VaN_sjdJw7HqfcQoB7aO-60" target="VaN_sjdJw7HqfcQoB7aO-62">
          <mxGeometry relative="1" as="geometry" />
        </mxCell>
        <mxCell id="VaN_sjdJw7HqfcQoB7aO-60" value="Game Loop" style="rounded=0;whiteSpace=wrap;html=1;" vertex="1" parent="1">
          <mxGeometry x="680" y="355" width="120" height="40" as="geometry" />
        </mxCell>
        <mxCell id="VaN_sjdJw7HqfcQoB7aO-61" style="edgeStyle=orthogonalEdgeStyle;shape=connector;curved=0;rounded=1;orthogonalLoop=1;jettySize=auto;html=1;exitX=0.5;exitY=1;exitDx=0;exitDy=0;entryX=0.5;entryY=0;entryDx=0;entryDy=0;strokeColor=default;align=center;verticalAlign=middle;fontFamily=Helvetica;fontSize=11;fontColor=default;labelBackgroundColor=default;endArrow=classic;" edge="1" parent="1" source="VaN_sjdJw7HqfcQoB7aO-62" target="VaN_sjdJw7HqfcQoB7aO-63">
          <mxGeometry relative="1" as="geometry" />
        </mxCell>
        <mxCell id="VaN_sjdJw7HqfcQoB7aO-62" value="to_game_rx" style="rounded=1;whiteSpace=wrap;html=1;fillColor=#1ba1e2;fontColor=#ffffff;strokeColor=#006EAF;" vertex="1" parent="1">
          <mxGeometry x="680" y="435" width="120" height="40" as="geometry" />
        </mxCell>
        <mxCell id="VaN_sjdJw7HqfcQoB7aO-63" value="&amp;nbsp;to_player_tx" style="rounded=1;whiteSpace=wrap;html=1;fillColor=#60a917;fontColor=#ffffff;strokeColor=#2D7600;" vertex="1" parent="1">
          <mxGeometry x="680" y="515" width="120" height="40" as="geometry" />
        </mxCell>
        <mxCell id="VaN_sjdJw7HqfcQoB7aO-70" value="Player Name" style="shape=parallelogram;perimeter=parallelogramPerimeter;whiteSpace=wrap;html=1;fixedSize=1;fontFamily=Helvetica;fontSize=11;fontColor=default;labelBackgroundColor=default;" vertex="1" parent="1">
          <mxGeometry x="200" y="120" width="120" height="20" as="geometry" />
        </mxCell>
        <mxCell id="VaN_sjdJw7HqfcQoB7aO-71" value="Player UUID" style="shape=parallelogram;perimeter=parallelogramPerimeter;whiteSpace=wrap;html=1;fixedSize=1;fontFamily=Helvetica;fontSize=11;fontColor=default;labelBackgroundColor=default;" vertex="1" parent="1">
          <mxGeometry x="200" y="140" width="120" height="20" as="geometry" />
        </mxCell>
        <mxCell id="VaN_sjdJw7HqfcQoB7aO-72" value="Game Name" style="shape=parallelogram;perimeter=parallelogramPerimeter;whiteSpace=wrap;html=1;fixedSize=1;fontFamily=Helvetica;fontSize=11;fontColor=default;labelBackgroundColor=default;" vertex="1" parent="1">
          <mxGeometry x="200" y="160" width="120" height="20" as="geometry" />
        </mxCell>
        <mxCell id="VaN_sjdJw7HqfcQoB7aO-76" style="edgeStyle=orthogonalEdgeStyle;shape=connector;curved=0;rounded=1;orthogonalLoop=1;jettySize=auto;html=1;exitX=0.5;exitY=1;exitDx=0;exitDy=0;strokeColor=default;align=center;verticalAlign=middle;fontFamily=Helvetica;fontSize=11;fontColor=default;labelBackgroundColor=default;endArrow=classic;" edge="1" parent="1" source="VaN_sjdJw7HqfcQoB7aO-75" target="VaN_sjdJw7HqfcQoB7aO-5">
          <mxGeometry relative="1" as="geometry" />
        </mxCell>
        <mxCell id="VaN_sjdJw7HqfcQoB7aO-75" value="Games" style="shape=parallelogram;perimeter=parallelogramPerimeter;whiteSpace=wrap;html=1;fixedSize=1;fontFamily=Helvetica;fontSize=11;fontColor=default;labelBackgroundColor=default;" vertex="1" parent="1">
          <mxGeometry x="200" y="180" width="120" height="20" as="geometry" />
        </mxCell>
        <mxCell id="VaN_sjdJw7HqfcQoB7aO-86" value="&amp;nbsp;tcp_tx" style="rounded=1;whiteSpace=wrap;html=1;fillColor=#1ba1e2;fontColor=#ffffff;strokeColor=#006EAF;arcSize=15;" vertex="1" parent="1">
          <mxGeometry x="520" y="200" width="120" height="40" as="geometry" />
        </mxCell>
        <mxCell id="VaN_sjdJw7HqfcQoB7aO-90" style="edgeStyle=orthogonalEdgeStyle;shape=connector;curved=0;rounded=1;orthogonalLoop=1;jettySize=auto;html=1;exitX=0.5;exitY=1;exitDx=0;exitDy=0;strokeColor=default;align=center;verticalAlign=middle;fontFamily=Helvetica;fontSize=11;fontColor=default;labelBackgroundColor=default;endArrow=classic;" edge="1" parent="1" source="VaN_sjdJw7HqfcQoB7aO-89" target="VaN_sjdJw7HqfcQoB7aO-53">
          <mxGeometry relative="1" as="geometry" />
        </mxCell>
        <mxCell id="VaN_sjdJw7HqfcQoB7aO-89" value="Send To Player" style="rounded=0;whiteSpace=wrap;html=1;" vertex="1" parent="1">
          <mxGeometry x="520" y="40" width="120" height="40" as="geometry" />
        </mxCell>
        <mxCell id="VaN_sjdJw7HqfcQoB7aO-98" style="edgeStyle=orthogonalEdgeStyle;shape=connector;curved=0;rounded=1;orthogonalLoop=1;jettySize=auto;html=1;exitX=0.5;exitY=1;exitDx=0;exitDy=0;entryX=0.5;entryY=0;entryDx=0;entryDy=0;strokeColor=default;align=center;verticalAlign=middle;fontFamily=Helvetica;fontSize=11;fontColor=default;labelBackgroundColor=default;endArrow=classic;" edge="1" parent="1" source="VaN_sjdJw7HqfcQoB7aO-94" target="VaN_sjdJw7HqfcQoB7aO-97">
          <mxGeometry relative="1" as="geometry" />
        </mxCell>
        <mxCell id="VaN_sjdJw7HqfcQoB7aO-94" value="Error" style="rounded=1;whiteSpace=wrap;html=1;fillColor=#e51400;fontColor=#ffffff;strokeColor=#B20000;" vertex="1" parent="1">
          <mxGeometry x="120" y="400" width="120" height="40" as="geometry" />
        </mxCell>
        <mxCell id="VaN_sjdJw7HqfcQoB7aO-97" value="&amp;nbsp;to_player_tx" style="rounded=1;whiteSpace=wrap;html=1;fillColor=#60a917;fontColor=#ffffff;strokeColor=#2D7600;" vertex="1" parent="1">
          <mxGeometry x="120" y="480" width="120" height="40" as="geometry" />
        </mxCell>
      </root>
    </mxGraphModel>
  </diagram>
</mxfile>
